# xmcd CD database file
#
# Track frame offsets:
#	150
#	30875
#	62075
#	103400
#	123403
#	160850
#	187025
#	209338
#	229438
#
# Disc length: 3585 seconds
#
# Revision: 1
# Processed by: cddbd v1.5.2PL0 Copyright (c) Steve Scherf et al.
# Submitted via: CDex 1.51
#
DISCID=7d0dff09
DTITLE=NALU - surf rider
DYEAR=2005
DGENRE=New Age
TTITLE0=He's Nalu - Surfing
TTITLE1=Spring
TTITLE2=Ocean Sunset
TTITLE3=Fair Molly
TTITLE4=El Sueno - The Dream
TTITLE5=Kaena/Heat
TTITLE6=Seals at Play
TTITLE7=Reflections
TTITLE8=Nalu - Rolling Wave
EXTD=YEAR: 2005
EXTT0=
EXTT1=
EXTT2=
EXTT3=
EXTT4=
EXTT5=
EXTT6=
EXTT7=
EXTT8=
PLAYORDER=
